Coordinates
version=1
nRows=11
nColumns=63
inDegrees=yes

Units are S.I. units (second, meters, Newtons, ...)
If the header above contains a line with 'inDegrees', this indicates whether rotational values are in degrees (yes) or radians (no).

endheader
time	pelvis_tilt	pelvis_list	pelvis_rotation	pelvis_tx	pelvis_ty	pelvis_tz	hip_flexion_r	hip_adduction_r	hip_rotation_r	knee_angle_r	knee_angle_r_beta	ankle_angle_r	subtalar_angle_r	mtp_angle_r	hip_flexion_l	hip_adduction_l	hip_rotation_l	knee_angle_l	knee_angle_l_beta	ankle_angle_l	subtalar_angle_l	mtp_angle_l	L5_S1_Flex_Ext	L5_S1_Lat_Bending	L5_S1_axial_rotation	L4_L5_Flex_Ext	L4_L5_Lat_Bending	L4_L5_axial_rotation	L3_L4_Flex_Ext	L3_L4_Lat_Bending	L3_L4_axial_rotation	L2_L3_Flex_Ext	L2_L3_Lat_Bending	L2_L3_axial_rotation	L1_L2_Flex_Ext	L1_L2_Lat_Bending	L1_L2_axial_rotation	L1_T12_Flex_Ext	L1_T12_Lat_Bending	L1_T12_axial_rotation	Abs_r3	Abs_r2	Abs_r1	Abs_t1	Abs_t2	neck_flexion	neck_bending	neck_rotation	arm_flex_r	arm_add_r	arm_rot_r	elbow_flex_r	pro_sup_r	wrist_flex_r	wrist_dev_r	arm_flex_l	arm_add_l	arm_rot_l	elbow_flex_l	pro_sup_l	wrist_flex_l	wrist_dev_l
      7.16949153	      1.36772778	     -0.65631699	    100.69072618	      0.14432012	      1.01907078	      0.11279710	      0.19929841	      0.38881774	    -22.24628754	      8.24653858	      0.14392925	     25.55524791	     14.41660467	      0.00000000	      2.83347797	     -2.40275497	     -1.64398549	     10.01114690	      0.17472748	     21.35637177	     12.54075375	      0.00000000	      0.01077967	      0.38028165	      0.67544738	      0.02001893	      0.50577460	      0.71766284	      0.01770992	      0.92461681	      0.71766284	      0.01232009	      0.92461681	      0.59101646	      0.01001000	      0.77547035	      0.54880100	      0.00615950	      0.58905628	      0.50658554	      0.07699811	      4.30182212	      3.75663570	      0.00000000	      0.00000000	     -4.86213625	     -2.30625390	     -1.91305933	     26.08594693	     -8.24941976	     15.88750085	    149.07961352	     88.68866593	     32.59240151	      9.69425015	      9.71802933	    -23.96051842	     37.64223255	     86.30795231	     87.87257696	     -2.76898360	      5.81658002
      7.18644068	      1.52841679	     -0.82072868	    100.97727674	      0.14363039	      1.01874831	      0.11272622	      0.38734489	      0.47743750	    -23.01802004	      8.30596779	      0.14496649	     25.80295092	     14.94275663	      0.00000000	      3.13438752	     -2.54122825	     -1.51642289	     10.09957293	      0.17627080	     21.38307246	     12.91234176	      0.00000000	      0.04832911	      0.45139855	      0.40978523	      0.08975200	      0.60036007	      0.43539681	      0.07939990	      1.09753043	      0.43539681	      0.05523534	      1.09753043	      0.35856208	      0.04487842	      0.92049192	      0.33295050	      0.02761526	      0.69921635	      0.30733892	      0.34521003	      5.10631065	      2.27910253	      0.00000000	      0.00000000	     -4.49323619	     -3.19375277	      1.29514326	     26.43164261	     -7.61295915	     16.61409375	    148.87528172	     88.81375484	     32.59595084	     10.84381304	      7.43167872	    -23.46575978	     36.27056464	     85.12161884	     88.15627484	     -4.50927498	      4.32069338
      7.20338983	      1.43448496	     -0.87824427	    100.96020076	      0.14387583	      1.01882317	      0.11269827	      0.43058322	      0.37933218	    -23.01189279	      8.31567948	      0.14513599	     25.90304897	     14.98021390	      0.00000000	      3.18599539	     -2.43024989	     -1.54888845	     10.01598243	      0.17481187	     21.35995662	     12.96694821	      0.00000000	      0.05808983	      0.46292576	      0.34142750	      0.10787863	      0.61569126	      0.36276672	      0.09543579	      1.12555770	      0.36276672	      0.06639087	      1.12555770	      0.29874906	      0.05394222	      0.94399821	      0.27740984	      0.03319253	      0.71707201	      0.25607062	      0.41492988	      5.23670881	      1.89891731	      0.00000000	      0.00000000	     -4.08178825	     -3.21550825	      1.60250068	     26.28237448	     -7.33728030	     16.55085395	    148.78453226	     88.87863306	     32.54044070	     10.85914915	      6.58669292	    -23.55686893	     36.60743222	     83.94607242	     88.23196256	     -4.57638057	      4.75634958
      7.22033898	      1.41416924	     -1.14060345	    101.39822982	      0.14352161	      1.01869936	      0.11268162	      0.62022582	      0.31768992	    -23.81125831	      8.27950356	      0.14450460	     25.72614470	     15.11416789	      0.00000000	      3.54503846	     -2.36522400	     -1.39195645	      9.89167054	      0.17264222	     21.23596404	     13.80380726	      0.00000000	      0.09787110	      0.49222582	      0.11897425	      0.18175642	      0.65466035	      0.12641014	      0.16079243	      1.19679787	      0.12641014	      0.11185688	      1.19679787	      0.10410246	      0.09088310	      1.00374690	      0.09666657	      0.05592355	      0.76245780	      0.08923068	      0.69908347	      5.56815697	      0.66169906	      0.00000000	      0.00000000	     -3.61230751	     -3.08605187	      3.60724647	     26.44773177	     -6.78286672	     17.34740160	    148.48762974	     88.94048192	     32.09385574	     11.67176810	      4.82579041	    -23.70095378	     35.95519741	     83.76279026	     88.48581881	     -4.18598391	      8.30722406
      7.23728814	      1.35323842	     -1.39373554	    101.57901108	      0.14357573	      1.01894187	      0.11286208	      0.83910841	      0.21405617	    -24.19165980	      8.26253418	      0.14420843	     25.20726926	     14.97193047	      0.00000000	      3.79502156	     -2.23134219	     -1.23801655	      9.58958348	      0.16736981	     20.86925812	     14.23750724	      0.00000000	      0.13719853	      0.50587593	      0.04501468	      0.25479138	      0.67281499	      0.04782809	      0.22540346	      1.22998674	      0.04782809	      0.15680420	      1.22998674	      0.03938784	      0.12740255	      1.03158220	      0.03657443	      0.07839524	      0.78360182	      0.03376101	      0.97999535	      5.72256972	      0.25035813	      0.00000000	      0.00000000	     -3.43104186	     -2.86447054	      3.92242353	     26.36332225	     -6.57570846	     17.85882932	    148.23076368	     88.92523989	     31.90325817	     11.63302432	      4.23620837	    -24.11451545	     37.12270188	     82.72357492	     88.71586692	     -3.32014388	     10.02210273
      7.25423729	      1.21369345	     -1.42387707	    101.89153579	      0.14390248	      1.01931767	      0.11328119	      0.77503124	      0.10638051	    -24.80147624	      8.19758129	      0.14307478	     24.60412613	     14.91810146	      0.00000000	      3.98532880	     -2.10596006	     -1.08418337	      9.64910100	      0.16840858	     20.72158299	     14.81865172	      0.00000000	      0.12800469	      0.49835010	     -0.03134278	      0.23771750	      0.66280564	     -0.03330171	      0.21029890	      1.21168844	     -0.03330171	      0.14629656	      1.21168844	     -0.02742494	      0.11886515	      1.01623553	     -0.02546601	      0.07314188	      0.77194431	     -0.02350709	      0.91432467	      5.63743603	     -0.17431917	      0.00000000	      0.00000000	     -3.20831952	     -2.19523653	      3.52244023	     26.36586172	     -6.54313267	     18.65594414	    148.00662965	     88.90043322	     31.08123361	     11.11550384	      3.93113726	    -24.50399361	     37.85512974	     82.20361274	     88.86012506	      0.20820060	     15.34738113
      7.27118644	      1.14342935	     -1.53490271	    102.18299444	      0.14405989	      1.01967179	      0.11366227	      0.81425226	      0.04177392	    -25.40105230	      8.15207312	      0.14228052	     23.78079929	     14.73180162	      0.00000000	      4.18015698	     -2.00928948	     -0.82199130	      9.53515732	      0.16641989	     20.31041560	     15.14469037	      0.00000000	      0.13721876	      0.50771145	     -0.11439046	      0.25482895	      0.67525623	     -0.12153987	      0.22543669	      1.23444962	     -0.12153987	      0.15682732	      1.23444962	     -0.10009166	      0.12742134	      1.03532519	     -0.09294225	      0.07840680	      0.78644504	     -0.08579285	      0.98013985	      5.74333346	     -0.63620544	      0.00000000	      0.00000000	     -3.26979248	     -1.87735260	      3.64455617	     26.46237195	     -6.41765811	     19.64606831	    147.74220056	     88.83020059	     31.02927530	     10.72478120	      3.94237005	    -24.89592229	     39.29284869	     81.14298412	     88.96209119	      3.24271240	     18.44642596
      7.28813559	      1.10635699	     -1.71445926	    102.44743619	      0.14437408	      1.01977975	      0.11394982	      0.93008306	     -0.00031204	    -26.01682686	      8.12070875	      0.14173311	     22.96973521	     14.59862487	      0.00000000	      4.45630506	     -1.95143143	     -0.65644535	      9.47591219	      0.16538587	     19.89622956	     15.45394524	      0.00000000	      0.16097962	      0.51301345	     -0.20955309	      0.29895525	      0.68230789	     -0.22265016	      0.26447342	      1.24734091	     -0.22265016	      0.18398361	      1.24734091	     -0.18335896	      0.14948567	      1.04613703	     -0.17026189	      0.09198375	      0.79465784	     -0.15716482	      1.14986132	      5.80331078	     -1.16547143	      0.00000000	      0.00000000	     -3.41694946	     -1.81232613	      3.51743226	     26.57798882	     -6.27746586	     20.56921738	    147.46338387	     88.75557809	     31.20002668	     10.47041708	      3.85881019	    -25.08776590	     40.29876996	     80.09672161	     89.02732678	      6.71105011	     21.42568677
      7.30508475	      1.05933025	     -1.92049034	    102.61387014	      0.14476440	      1.01971589	      0.11408292	      1.09002611	     -0.06756520	    -26.38457731	      8.12392462	      0.14178923	     22.29567049	     14.43370990	      0.00000000	      4.69374776	     -1.88246422	     -0.67701221	      9.41080550	      0.16424954	     19.51596857	     15.63563746	      0.00000000	      0.19281027	      0.52184141	     -0.31002206	      0.35806796	      0.69404907	     -0.32939844	      0.31676800	      1.26880520	     -0.32939844	      0.22036286	      1.26880520	     -0.27126930	      0.17904362	      1.06413900	     -0.25189292	      0.11017179	      0.80833234	     -0.23251654	      1.37722449	      5.90317439	     -1.72424968	      0.00000000	      0.00000000	     -3.49679751	     -2.18602026	      3.62913292	     26.79436099	     -6.08887364	     21.40679587	    147.11726947	     88.73836177	     31.50447272	     10.50724070	      3.61336973	    -25.34833224	     41.42581294	     79.19237259	     89.07771701	      7.75150522	     22.30455619
      7.32203390	      1.10196218	     -1.99388496	    103.13823545	      0.14469194	      1.01953335	      0.11490699	      1.08027153	      0.01198647	    -27.08955075	      7.97802744	      0.13924285	     21.92657048	     14.37822712	      0.00000000	      5.09683197	     -1.95986317	     -0.59465940	      9.86123981	      0.17211110	     19.51036705	     16.18667734	      0.00000000	      0.19301464	      0.53774198	     -0.47468579	      0.35844748	      0.71519683	     -0.50435366	      0.31710375	      1.30746584	     -0.50435366	      0.22059643	      1.30746584	     -0.41535007	      0.17923339	      1.09656344	     -0.38568221	      0.11028856	      0.83296232	     -0.35601434	      1.37868424	      6.08304478	     -2.64005997	      0.00000000	      0.00000000	     -3.11813372	     -2.71924657	      3.35387145	     26.95533176	     -5.83763505	     21.63712892	    146.83222143	     88.77752199	     32.17848999	     10.88467407	      3.31317851	    -25.09722325	     41.11162549	     78.45547236	     89.09968147	     11.96419959	     24.62446368
      7.33898305	      1.06763031	     -2.15247589	    103.27434282	      0.14500354	      1.01924856	      0.11558303	      1.25633821	     -0.03760701	    -27.20379048	      7.96865125	      0.13907920	     21.83818160	     14.29362968	      0.00000000	      5.34948631	     -1.93500581	     -0.69166471	     10.05364657	      0.17546923	     19.13237450	     16.19071458	      0.00000000	      0.19930425	      0.54651010	     -0.56522084	      0.37012793	      0.72685844	     -0.60054714	      0.32743696	      1.32878466	     -0.60054714	      0.22778483	      1.32878466	     -0.49456823	      0.18507393	      1.11444340	     -0.45924193	      0.11388245	      0.84654415	     -0.42391563	      1.42361035	      6.18223158	     -3.14358874	      0.00000000	      0.00000000	     -2.50864312	     -3.41875939	      3.10571483	     27.05286026	     -5.66079236	     21.82059836	    146.53394613	     88.89493629	     32.28879776	     11.02442340	      2.86527676	    -25.12849501	     41.33639186	     78.13118115	     89.09306924	     12.45099100	     24.86915042
